<svg id="_ÎÓÈ_2" data-name="—ÎÓÈ_2" xmlns="http://www.w3.org/2000/svg" viewBox="0 0 1463.28 357.68"><defs><style>.cls-1{fill:#fff;}</style></defs><title>Vector Smart Object</title><path class="cls-1" d="M343.63,888.09a59,59,0,0,0,1.5,7.52c.68,1.78.68,2.74.41,3.15s-1.64,4.1,1.09,4.92,14.91,1.23,17.79.55c0,0,4.51-1.5,4.79-2.46s.27-1.92-3.28-2.19S355,896.16,355,896.16s-.41-20.79-1.5-24.21c0,0,2.33-6.7,1.91-8.62,0,0-4-13.41-4.79-14.64a8,8,0,0,0,.41-2.87s-.68-9.17-1.78-11.08-1.78-1.23-1.78-1.23,5.06-7.25,6.16-14,3.15-21.89-10.53-35.3l.14-1.64a11.58,11.58,0,0,0,6.7.27s1.64-1,1.91-2.05l1.5-1.37.68-1.92s3.69-3.28,2.19-5.88c0,0-1.37-3.83.68-5.2a14.23,14.23,0,0,0-2.33-15.18s-8.62-9-20.38-8.21a16.94,16.94,0,0,0-12.45,17.24,36,36,0,0,0,3.15,9.58s2.87,4.92,1.09,8.48a41,41,0,0,0-7.8,12.59s-3,7.25-3.15,10c0,0-1.23,3.69,3.42,8.07l3.42,1.92-1,3.56s-5.61.41-7.52,3c0,0-.68,2.05.14,2.33,0,0-.14,2.87,1.78,3.56,0,0,.82.14,1-1.23,0,0,5.2.68,6.29-.41l1.09.14-.14,1.09s-5.06.27-7.8,6.57c0,0-6.57,12-1.23,20.79l1.09,1.78L316,860s-.41,4-1.64,4.38c0,0-5.88,1-10.4,8.35,0,0-4.1,7.39-5.47,8.89,0,0-3.42-.27-4.1,3,0,0,.27,1.78.55,4.1a49.86,49.86,0,0,1,.14,7.11s1,4.11,2.46,6.16c0,0,4.1,2.74,7.39,3,0,0,3.42.68,3.56-1a38.74,38.74,0,0,1-1.78-5.34s-1.78-7.25-.27-9.85c0,0,6-9.85,14.5-14.23,0,0,5.47-2.05,7.39-5.75l3.28-9.3a15.28,15.28,0,0,0,4.79,0s3.83,4.24,5.06,7.25c0,0,1.78,3.56,1.09,4,0,0-2.74,5.2-.14,13.27Z" transform="translate(-294.38 -556.91)"/><path class="cls-1" d="M508.69,886.25s10.91,18.08,12.7,19.87c0,0,7.58-.76,10.39,0,0,0,1.68-2-.62-5.06l-3.58-4.85-2.81-4.86s7.41-10,13.54-14l12.26-8.43s6.9-3.07,5.88-9.2l.77-4.34,3.57-.25.26-4.34,2,4.6-.76,1.79,4.09.77h3.32s-4.09,11-3.58,21.71v7.66l-1.53,2s-2,4.09-1.53,6.9l2.3,2.3s23,1.79,26.56,1l4.09-.76a21,21,0,0,0-11.49-10l-8.43-.77s5.88-19.27,5.12-24.63c0,0,2.8-5.5,1.27-10.1h2.55s-1.35-18.27-7.48-24.15l-1.35-3.85,2.7-.61.51-20.17,6.9,1.79s6.9,5.62,7.66,7.92c0,0,3.32,1.79-.51-6.64a7.07,7.07,0,0,1,4.6,6.64s1.53,1.79,1.53-1.53c0,0-1.28-6.13-3.83-7.41a11.37,11.37,0,0,1,7.91,4.85s1.28-.77-.25-4.85a21.62,21.62,0,0,0-9.45-4.85L582.24,793l-3.32-31.92s-3.57-9.7-5.62-12.51l-3.89-3,.14-2.33a11.24,11.24,0,0,0,6.81.46,6.71,6.71,0,0,0,1.79-4.34l1.25-2.41.14-3,3.21-1.48L581,726.63s-.6-4.27,1.58-6.46c0,0,1.34-9.21-4.37-14.66-8.83-8.42-22.74-10.55-29.64-.13-6.78,10.23-2,16.82.27,21.93,0,0,2.89,2.86,5.18,4.65l.79,4.49-1.86,2.69a41.85,41.85,0,0,0-11.14,19.75s-6.54,49-9.09,57.14l-2.3,13s-1.27,1.53,10.47,0c0,0-5.36,14.81-4.34,21.71l4.85,1.53s1.79,2.29-2.55,7.92c0,0-6.9,0-21.2,20.18C517.63,880.38,508.43,878.08,508.69,886.25Z" transform="translate(-294.38 -556.91)"/><path class="cls-1" d="M700.25,872.9s3.85,10.93,5.67,12.76c0,0,6.07,1.82,6.48,9.72,0,0,6.88,12.15,15.79,16.6,0,0,4.25-3.85,4.85-6.68,0,0-2.23-8.1-3.84-9.72,0,0,3.84-3.85,4.65-6.28a16.3,16.3,0,0,1,5.87-3.44s10.53-7.9,16-16.4c0,0,8.5-11.14,13.57-15.19,0,0,15.19-18.83,17.41-22.07l7.9-10.33a36.7,36.7,0,0,1,6.68,12.35s1.26,8.66,3.62,13.38c.14.28.28.55.43.8,2.63,4.45,2.23,4.25,4.25,10.12,0,0,3.85,5.47,5.87,7.29s.2,1.82-.2,4.86-2.63,4.25-1,5.87,1.42,4,1.42,4.66v4.25l1,14s9.92.81,13,.81c.61,0,3-4.05,7.7.2,0,0,19-.2,24.5-3.85,0,0-.41-8.51-13.16-8.3l-3.84-8.3s2.23-5.47-1.83-8.5a12.61,12.61,0,0,1-5.47-10.12c0-3.24-3.85-22.88-3.85-25.31s.81-5.67-.81-10.93-3-11.54-5.87-15.39-3.64-3.85-4.66-5.67-2.23-7.9-4.25-8.5-2.23-2.83-2.83-4.86-2.43-6.88-2.43-6.88-.2-9.92.41-13.36,3-11.74,3-11.74,8.1,3.65,10.33,4,7.49-.4,9.11,1.62c0,0,1.22,1.42,2.63-.41s.81.2.81.2,2.83-4.86,2.83-6.48a5.94,5.94,0,0,0,1.82-2.83c.2-1.42-.4-5.06-6.28-4.86,0,0-8.91.4-11.95,2.43,0,0-2,.61-3-.81l-4.86-4s4.25-19.64-3-34a33.31,33.31,0,0,0-8.18-11.29l.18-1.06s9,2.64,10.81.7a13.08,13.08,0,0,0,.35-3.53,1.89,1.89,0,0,1,1.42-2.12c.53,0-.35-1.59-1.42-1.94a16.34,16.34,0,0,1,3-2.29l-.53-2.12,2.48-2.12a3,3,0,0,0-.71-2.29s-2.48-3.7-.35-5.29c0,0,1.59-6.52-.71-10.75,0,0,1.59-2.64.71-3.7s-.18-2.12-2.84-3.7-3.72-.53-5.67-2.11-5.85-.53-7.79-2.82-6.38-1.06-13.82.7-11.34,11.28-11.34,15.69,6.73,19.92,8.86,21.68l1.24-.17-.71,3.17s-11.63,2.18-12.24,4-12.35,3-13,4.86c0,0-10.12,16-9.52,22.68,0,0,1,15.79,1,23.08,0,0,1,19,17.41,22.48,0,0-2.23,13.77-4.86,29.16,0,0-2.43,15-5.67,19.64,0,0-10.73,7.09-14,10.53s-6.68,7.49-9.92,10.53-9.71,8.3-13,12.35-6.88,7.9-8.3,8.3S701.87,870.88,700.25,872.9Z" transform="translate(-294.38 -556.91)"/><path class="cls-1" d="M1006.07,875.11s3.41,5.27.93,10.23c0,0-6.82,10.85-.93,16.43,0,0,20.77,1.86,27,1.86,0,0,24.48-.31,26-2.79,0,0,2.79-5.27-7.44-6.82,0,0-12.71-1.24-16.12-6.82,0,0-3.72-8.06-1.55-11.16,0,0,5.27-5.58,4-16.43,0,0-7.13-31.92-5.89-35s1.86-3.41,2.79-5.58,1.24-26,1.24-30.68.93-18,.93-20.45,2.48-.62,2.48-.62-3.1-41.53-2.17-45.56l10.85-.62s7.75,2.17,11.78,1.86c0,0,6.51-3.1,9-4.65,0,0,3.1-2.79,2.79-3.72l-.31-.93,11.16-8.06a19.25,19.25,0,0,0,.31-5L1069,711.78s.62-4.65-2.17-5c0,0-8.68-3.1-13.33-1.86,0,0-12.4,0-14.57-2.17,0,0-.31-20.77-.62-23.55s6.82-17.36,6.82-17.36-9.61-11.78-13.33-13.95l-1.86-2.17,1.24-4.34s3.41,0,4.65,1.55c0,0,1.86,4.34,4,4.65,0,0,4-.93,4.34-3.1l1.86-.62,1.24-1.55,1.24-.31.62-1.86,4.65-.31-.31-5.58,1.55-5s1.86,2.79,1.86,5c0,0,2.79.31,3.72-4a72.75,72.75,0,0,1,1.24,7.44s5.89-14.57,3.72-24.17-14.26-26.34-33.78-16.43-14.88,24.48-16.74,34.09l2.48.93-4.34,5.27s-16.43,8.68-19.53,14.26L991.5,656s-20.15,10.23-23.25,16.74c0,0-4,17.67-5,20.77,0,0-6.82,16.12-6.51,23.55s.93,19.84,5.27,24.79,21.7,9.92,25.1,10.85,4.34,10.23,4,17-2.17,14.88-.31,19.22,6.51,12.71,6.51,12.71a10.5,10.5,0,0,1-3.72,10.23s-39.05,35-44.32,36.57-16.12,5-20.15,9S934.78,872,938.81,877s4,16.12,17,23.25c0,0,8.06,2.17,8.06-4.65,0-1.24-4.34-13.64-6.51-18,0,0,13.78-8.33,22.62-13.64,1.55-.93,20.46-18.29,22.94-22.32C1003,841.64,1003.28,868.29,1006.07,875.11Z" transform="translate(-294.38 -556.91)"/><path class="cls-1" d="M1293.8,704l.59.14S1293.34,703.6,1293.8,704Z" transform="translate(-294.38 -556.91)"/><path class="cls-1" d="M1321,896.69s-14.05-.21-18.18-2.27c0,0-8.47-3.72-11.78-11.78,0,0-6-19.63-6.61-22.11s-6.82-8.68-7.85-9.71-1.45-3.92-1.24-6.4-3.31-8.89-3.72-11.16-3.51-9.3-4.13-11.36,2.27-5.37,1.86-8.68-3.31-15.5-3.31-20.66S1264,756,1264,756l10.54-.62s4.13-.21,4.75-3.31-7.23-38-6.61-42.36l7,6s5.58,1,6.2-1.24,3.1.21,3.72,2.07l4.55,4.34s1.24.62,1.65-1.86l1.24-8.27s1-3.92-1.86-5.78c-.82-.53-1.24-.82-1.42-1l-6.23-1.51v-1.65s-11.36-10.33-18.8-14.67c0,0-10.12-39.46-16.32-47.52,0,0-4.13-11.16-4.55-11.78s-5.17-10.33-5.17-10.33,1-8.06,1.24-9.09a97.41,97.41,0,0,0,9.92-1.24,4.38,4.38,0,0,0,.41-5.37l-.41-2.07.62-2.89.41-4.55s2.84-.77,3.1-1.65-.62-2.27-1.45-3.1l-.83-.83-3.72-3.1s.41-3.72,0-5l-2.27-6.2s3.51-2.69,1.45-5.58c0,0-12.6-15.5-32.23-5.79,0,0-15.7,9.92-4.54,30.37l6.4,9.71.21,3.52s-2.07,5.58-3.51,6.2c0,0-9.5,2.89-12.19,8.68,0,0-7.44,10.54-8.06,15.08,0,0-2.07,10.74-2.07,13.84a64.75,64.75,0,0,1-1,8.68,9.88,9.88,0,0,0-1,8.68s.62,7.23.41,8.68-3.1,10.12-2.27,15.29-.21,27.89-.21,27.89l-6.61,34.92,6.82,1.86s-7.65,5.37-8.89,9.09l-21.9-7.85s-3.31.41-4.34,2.89L1136.74,811a4.52,4.52,0,0,0,2.89,5.79l31.61,9.92-5,15.08s-2.68,13.84-4.54,15.91-6.61,8.88-6.61,8.88-3.1,8.06-4.75,11.37-4.75,20.66-4.75,20.66,13.64,5.37,17.15,6c0,0,3.31-3.1,6.2-.41,0,0,4.34,3.3,7.23,3.3l20.66-1.45a40.54,40.54,0,0,0,4.75-3.1c1.45-1.24-1-3.92-2.89-5s-13.84-.62-13.84-.62l-6.82-9.3,2.07-4.13c.41-.83,0-9.5,0-9.5s18-22.73,21.49-34.92l.83-1.65,7.65,3.31s4.75,2.69,7.44-1.24l12.6-31.42,13.64,27.89,18.6,44.42s4.75,6,4.55,8.47-.6,12,0,13.84c.21.62,2.69,5.37,2.69,5.37s33.27,4.13,46.49-1.86l7.85-4.13S1322.9,896.9,1321,896.69Zm-124-127.89-8.47-3.72s0-4.13,3.72-3.72l6.2,3.93Z" transform="translate(-294.38 -556.91)"/><path class="cls-1" d="M1447.33,802l7,12.18s2.13,4.57,3,6.7,2.74,7.92,4.26,10,4,7.92,4.87,11,1.52,6.39,3.65,10,3.66,11.57,5.79,14,9.44,14.31,10.05,17.36-2.74,4.57-3,7.61,1.52,7.92,1.52,10.05-.61,10-.61,10,17.36,2.13,18.58,1.22,4-.91,5.18-.91,12.49-2.13,17.36-3.35,14.31-4.57,14.31-4.57,1.22-6.09-.91-7-11.27,0-13.4-.61-4-2.74-5.18-3a26.3,26.3,0,0,1-3.66-1.52s-6.09-4.26-6.7-5.79-2.44-12.18-2.44-12.18l-8.53-35.94-4.26-11.57-1.52-9.44,2.13-6.39-.61-2.13-1.52-8.22-1.83-4.26-1.52-6.4-2.13-12.18-.61-4.87.61-4.87-1.52-6.7.61-4s.3,1.22,2.74,0,3,.92,4,.31,4.57-1.83,4.87-5.18-1.83-5.79-3.65-7.31-8.83-5.18-8.83-5.18l-1.22-5.48s-3.35-7.61-3.35-8.83,5.48-6.09,6.7-11,2.44-19.79-1.83-29.24c0,0,.61-10.36.61-14.92s-5.79-26.19-6.4-28.32l-.61-2.13,4.26-10-2.74-3.66s3-6.7,8.53-7.61c0,0,2.44.3,2.13-4l.3-1.83-.91-1.52,1.52-.91,1.22-3.35s1.22-1.52,2.13-.91c0,0,2.44-.61,1.83-3.66l-1.52-3.65.61-1.83.3-5.79a51.36,51.36,0,0,0,10-1.52l1.83-3.35-12.79-4.87s-6.4-8.53-11.57-10.05-11.57-3.65-18.88,0-13.1,11-12.79,20.71,0,11.57.31,14-5.18,6.09-5.18,6.09-10,2.13-18,18.27c0,0-6.09,11.27-7.92,29.54,0,0-.3,21.62-1.22,23.45a78.49,78.49,0,0,0-3.35,11,27.67,27.67,0,0,0,0,10c.61,4,.61,7.92-1.22,10.66s-4.26,4-7.92,12.18,0,24.06.61,32.28a88.43,88.43,0,0,1,0,15.84,68.23,68.23,0,0,1-3.35,15.53c-1.83,5.48-6.09,22.23-7.92,26.19s-8.53,13.4-8.53,16.45-2.44,16.75-2.44,16.75l-2.13,14.92c-.61,4.26-9.75,11.57-9.44,12.49s-.3,10.66-.3,10.66l-4.87,6.7,8.53,7.62s6.09.61,7.92,3.35,16.45,3.65,30.76,2.13c0,0,2.13-4.26-.3-6.7s-12.49-4-14.62-10.66l3.35-8.22s-1.22-5.79.61-9.14,11-13.1,11-13.1S1436.67,829.41,1447.33,802Z" transform="translate(-294.38 -556.91)"/><path class="cls-1" d="M1614.79,897.82s-2,5.46-2.22,6.67-1.42,7.88-1.42,7.88l7.68,2h13.74l16,.2,6.06-.2s.81-5.25-.81-6.87-9.3-3.64-9.3-3.64l1.82-13.54L1660.06,859l3.23,26.88,2.63,2.22-.61,5.25-2,3.23s-1.41-1-1.82,2.63-.4,11.32-.4,11.32,28.29-1,28.9-1.21,22.84-.61,22.84-.61l1.62-1.82-1.21-5.25s-12.73-1.62-15.16-3c0,0-6.67-11.11-8.49-12.93,0,0,0-3.64.81-5.25,0,0,5.25-5.46,6.06-8.49s.81-21,1-25.46-2-23-2.22-27.69-5.05-21-5.05-23.64,0-6.67.4-8.08.81-14.35.81-14.35,1.62,1.82,2.83-.2-2.42-22-2.42-22l-1.41-12.73,7.28,18.59,23.44,58.6,30.11,77.19-1,1.62,1.82,4s4.65,1.62,5.66-1.82l-2.22-4.85-1,.4L1734.22,839l-19.6-51.13-21.22-52.94,1.41-.2a2.5,2.5,0,0,0,2.63.4c1.62-.61,2.22-3.84,2.22-3.84l2.63-1s1.42,2,.61,7.68c0,0,1.41,4,3.64.81,0,0,1.82-8.08-2-13.34,0,0-.4-1.82-4.24-5.46,0,0-.61-2-5.86-1.21l-5.86.4a53,53,0,0,0-3.43-20.81s-5.46-24.66-9.7-32.13L1670,652.89v-4.65s5.46,1.82,9.5-2.42c0,0,3.44-2.42,2.63-8.89l-.41-1.82-1.21-1.42,1.62-1.41s2.22-3.44,1.21-4.65c0,0,.81.61,2.43-1,0,0,2-1.21.61-5.05l-2-4.45s0-3.23,1-3.84l-.2-4.85s3.64-.4,3.64-2.42-1-9.3-19.6-14.75a35.4,35.4,0,0,1-6.87-.61,27.06,27.06,0,0,0-10.1-.4c-3.23.61-7.27.81-7.68,3.23a30.46,30.46,0,0,0-.61,6.87c.2,1.41.2,4.65.2,4.65s-2.42,12.53-.81,15.56l1.41,3s-6.26,1-6.26,3-1.82,4.25-1.82,4.25-9.7,1.82-13.94,11.11-6.67,10.91-6.26,24.25a132.69,132.69,0,0,0,3,24.25l2.22,19.8,1.82,32.94s1.62,23.85,1,30.72c0,0,5.05,5.25,9.5,6.47,0,0,1.82,8.49,1.82,9.09s2.63,6.26,2.22,8.29-3.43,7.48-2.63,10.1,2.43,6.87,2.43,8.69-1.82,4.45-4.45,6.87-3.43,10.3-3.43,13.74a151.94,151.94,0,0,1-2.22,18.39c-.81,3.84-5.25,14.75-5.25,16.37s-5.46,6.06-4.65,9.7,1,8.08.2,10.1A32.92,32.92,0,0,1,1614.79,897.82Z" transform="translate(-294.38 -556.91)"/></svg>